<!-- Generated by IcoMoon.io -->
<svg version="1.1" xmlns="http://www.w3.org/2000/svg" width="32" height="32" viewBox="0 0 32 32">
<title>logo-dai-hoc-nha-trang-inkythuatso</title>
<path fill="#fff" d="M30.613 15.988c0 8.076-6.547 14.623-14.623 14.623s-14.623-6.547-14.623-14.623 6.547-14.623 14.623-14.623c8.076 0 14.623 6.547 14.623 14.623z"></path>
<path fill="#4749a6" d="M15.075 1.391c-1.781 0.116-3.544 0.548-5.165 1.297-2.571 1.17-4.781 3.111-6.288 5.499-1.525 2.398-2.317 5.251-2.252 8.092 0.038 2.167 0.569 4.325 1.543 6.262 1.476 2.953 3.982 5.378 6.986 6.748 1.654 0.762 3.454 1.206 5.272 1.303 3.419 0.207 6.896-0.849 9.621-2.924 2.701-2.027 4.665-5.017 5.43-8.308 0.438-1.848 0.506-3.782 0.213-5.658-0.29-1.834-0.93-3.614-1.889-5.205-1.641-2.758-4.215-4.949-7.204-6.118-1.983-0.787-4.14-1.114-6.268-0.987zM14.647 0.839c0.246-0.023 0.493-0.049 0.74-0.035 0.661 0.022 1.326-0.035 1.985 0.040 2.249 0.198 4.451 0.912 6.389 2.071 2.864 1.695 5.141 4.359 6.365 7.454 1.369 3.407 1.431 7.315 0.183 10.768-0.579 1.604-1.426 3.11-2.503 4.433-2.042 2.527-4.913 4.375-8.066 5.166-0.981 0.254-1.99 0.399-3.001 0.448-0.309 0.036-0.62 0.004-0.93 0.013-0.323 0.020-0.644-0.025-0.966-0.037-3.45-0.246-6.791-1.729-9.296-4.112-1.15-1.086-2.132-2.352-2.893-3.74-1.089-1.971-1.724-4.191-1.848-6.44-0.011-0.252 0.003-0.505 0.002-0.758 0.009-0.453-0.030-0.907 0.022-1.358 0.107-1.341 0.396-2.668 0.853-3.934 0.894-2.476 2.447-4.708 4.454-6.411 2.376-2.033 5.395-3.303 8.512-3.566z"></path>
<path fill="#4749a6" d="M6.051 23.772v0.382h0.306v0.181h-0.306v0.383h0.216c0.096 0 0.164-0.008 0.207-0.023 0.056-0.020 0.098-0.055 0.128-0.107 0.041-0.073 0.061-0.186 0.061-0.336 0-0.107-0.009-0.19-0.026-0.248s-0.043-0.105-0.076-0.141c-0.034-0.036-0.077-0.061-0.131-0.075-0.042-0.010-0.124-0.016-0.249-0.016zM5.763 23.53h0.526c0.121 0 0.212 0.009 0.275 0.028 0.084 0.025 0.157 0.070 0.216 0.134s0.105 0.142 0.135 0.232c0.030 0.091 0.045 0.203 0.045 0.337 0 0.118-0.017 0.224-0.050 0.318s-0.083 0.173-0.148 0.236c-0.050 0.047-0.117 0.085-0.202 0.112-0.064 0.020-0.149 0.030-0.256 0.030h-0.542v-0.624h-0.148v-0.181h0.148z"></path>
<path fill="#4749a6" d="M7.633 25.076h0.274v0.274h-0.274zM7.963 24.394l-0.197-0.53-0.193 0.53zM8.494 24.959h-0.314l-0.125-0.325h-0.571l-0.118 0.325h-0.306l0.557-1.429h0.305z"></path>
<path fill="#4749a6" d="M8.638 23.53h0.289v1.429h-0.289z"></path>
<path fill="#4749a6" d="M9.757 24.959v-1.429h0.289v0.562h0.565v-0.562h0.289v1.429h-0.289v-0.625h-0.565v0.625z"></path>
<path fill="#4749a6" d="M11.684 25.076h0.274v0.274h-0.274zM11.437 24.244c0 0.162 0.037 0.284 0.112 0.368s0.17 0.125 0.285 0.125c0.115 0 0.209-0.041 0.283-0.124s0.111-0.207 0.111-0.373c0-0.164-0.036-0.286-0.108-0.367s-0.167-0.121-0.286-0.121c-0.119 0-0.215 0.041-0.288 0.122s-0.109 0.205-0.109 0.369zM11.14 24.254c0-0.145 0.022-0.268 0.065-0.367 0.033-0.073 0.077-0.138 0.133-0.196s0.118-0.101 0.185-0.129c0.089-0.038 0.192-0.057 0.308-0.057 0.211 0 0.379 0.065 0.505 0.196s0.19 0.312 0.19 0.545c0 0.231-0.063 0.411-0.188 0.542s-0.293 0.195-0.503 0.195c-0.212 0-0.381-0.065-0.507-0.194s-0.188-0.308-0.188-0.536z"></path>
<path fill="#4749a6" d="M13.665 24.434l0.28 0.089c-0.043 0.156-0.114 0.272-0.214 0.347s-0.226 0.114-0.38 0.114c-0.19 0-0.346-0.065-0.468-0.195s-0.183-0.307-0.183-0.532c0-0.238 0.061-0.423 0.184-0.554s0.284-0.197 0.485-0.197c0.175 0 0.317 0.052 0.426 0.155 0.065 0.061 0.114 0.149 0.146 0.263l-0.286 0.068c-0.017-0.074-0.052-0.133-0.106-0.175s-0.119-0.064-0.196-0.064c-0.106 0-0.192 0.038-0.258 0.114s-0.099 0.199-0.099 0.369c0 0.181 0.033 0.309 0.098 0.386s0.149 0.115 0.253 0.115c0.077 0 0.143-0.024 0.198-0.073s0.095-0.125 0.119-0.23z"></path>
<path fill="#4749a6" d="M14.75 24.959v-1.429h0.281l0.585 0.954v-0.954h0.268v1.429h-0.29l-0.576-0.932v0.932z"></path>
<path fill="#4749a6" d="M16.19 24.959v-1.429h0.289v0.562h0.565v-0.562h0.289v1.429h-0.289v-0.625h-0.565v0.625z"></path>
<path fill="#4749a6" d="M18.388 24.394l-0.197-0.53-0.193 0.53zM18.92 24.959h-0.314l-0.125-0.325h-0.571l-0.118 0.325h-0.306l0.557-1.429h0.305z"></path>
<path fill="#4749a6" d="M19.875 24.959v-1.187h-0.424v-0.242h1.136v0.242h-0.423v1.187z"></path>
<path fill="#4749a6" d="M21.062 24.135h0.214c0.138 0 0.225-0.006 0.259-0.017s0.061-0.032 0.081-0.060 0.029-0.064 0.029-0.107c0-0.048-0.013-0.087-0.038-0.116s-0.062-0.048-0.109-0.056c-0.023-0.003-0.094-0.005-0.211-0.005h-0.225zM20.774 24.959v-1.429h0.607c0.153 0 0.264 0.013 0.333 0.038s0.125 0.071 0.166 0.137c0.042 0.066 0.062 0.141 0.062 0.225 0 0.107-0.032 0.196-0.095 0.266s-0.157 0.114-0.283 0.132c0.062 0.036 0.114 0.076 0.155 0.12s0.095 0.121 0.164 0.232l0.175 0.279h-0.345l-0.209-0.311c-0.074-0.111-0.125-0.181-0.152-0.21s-0.056-0.049-0.087-0.059c-0.031-0.011-0.079-0.016-0.145-0.016h-0.059v0.597z"></path>
<path fill="#4749a6" d="M22.972 24.394l-0.197-0.53-0.193 0.53zM23.503 24.959h-0.314l-0.125-0.325h-0.571l-0.118 0.325h-0.306l0.557-1.429h0.305z"></path>
<path fill="#4749a6" d="M23.659 24.959v-1.429h0.281l0.585 0.954v-0.954h0.268v1.429h-0.29l-0.576-0.932v0.932z"></path>
<path fill="#4749a6" d="M25.763 24.434v-0.241h0.622v0.569c-0.060 0.058-0.148 0.11-0.263 0.154s-0.231 0.067-0.349 0.067c-0.149 0-0.28-0.031-0.391-0.094s-0.195-0.152-0.25-0.269c-0.056-0.117-0.084-0.244-0.084-0.381 0-0.149 0.031-0.281 0.094-0.397s0.154-0.204 0.274-0.266c0.092-0.047 0.206-0.071 0.342-0.071 0.177 0 0.316 0.037 0.416 0.112s0.164 0.177 0.192 0.309l-0.287 0.054c-0.020-0.070-0.058-0.126-0.114-0.166s-0.125-0.061-0.208-0.061c-0.126 0-0.226 0.040-0.301 0.12s-0.112 0.199-0.112 0.356c0 0.17 0.038 0.297 0.113 0.382s0.174 0.127 0.296 0.127c0.060 0 0.121-0.012 0.182-0.036s0.113-0.052 0.156-0.086v-0.181z"></path>
<path fill="#4749a6" d="M14.672 27.487h-0.248v-0.934c-0.091 0.085-0.197 0.147-0.32 0.188v-0.225c0.065-0.021 0.135-0.061 0.211-0.12s0.128-0.128 0.156-0.207h0.201z"></path>
<path fill="#4749a6" d="M15.609 26.647c0-0.080-0.018-0.142-0.055-0.186s-0.079-0.066-0.127-0.066c-0.046 0-0.084 0.018-0.114 0.054s-0.045 0.095-0.045 0.178c0 0.084 0.016 0.145 0.049 0.184s0.074 0.059 0.123 0.059c0.048 0 0.088-0.019 0.12-0.056s0.049-0.093 0.049-0.166zM15.048 27.188l0.24-0.027c0.006 0.049 0.021 0.085 0.046 0.108s0.057 0.035 0.098 0.035c0.051 0 0.095-0.023 0.13-0.071s0.059-0.145 0.069-0.293c-0.062 0.072-0.14 0.108-0.234 0.108-0.102 0-0.19-0.039-0.263-0.118s-0.111-0.181-0.111-0.306c0-0.131 0.039-0.237 0.117-0.317s0.177-0.12 0.298-0.12c0.131 0 0.239 0.051 0.323 0.152s0.126 0.268 0.126 0.501c0 0.236-0.044 0.407-0.131 0.512s-0.202 0.157-0.342 0.157c-0.101 0-0.183-0.027-0.245-0.081s-0.102-0.134-0.12-0.241z"></path>
<path fill="#4749a6" d="M16.051 27.155l0.247-0.026c0.007 0.056 0.028 0.1 0.063 0.133s0.075 0.049 0.12 0.049c0.052 0 0.096-0.021 0.131-0.063s0.054-0.105 0.054-0.19c0-0.079-0.018-0.139-0.053-0.179s-0.082-0.060-0.139-0.060c-0.071 0-0.135 0.032-0.191 0.094l-0.201-0.029 0.127-0.673h0.655v0.232h-0.467l-0.039 0.22c0.055-0.028 0.112-0.041 0.169-0.041 0.11 0 0.203 0.040 0.279 0.12s0.115 0.184 0.115 0.311c0 0.106-0.031 0.201-0.093 0.285-0.084 0.114-0.201 0.171-0.35 0.171-0.119 0-0.217-0.032-0.292-0.096s-0.12-0.15-0.135-0.258z"></path>
<path fill="#4749a6" d="M17.618 26.647c0-0.080-0.018-0.142-0.055-0.186s-0.079-0.066-0.127-0.066c-0.046 0-0.084 0.018-0.114 0.054s-0.045 0.095-0.045 0.178c0 0.084 0.016 0.145 0.049 0.184s0.074 0.059 0.123 0.059c0.048 0 0.088-0.019 0.12-0.056s0.049-0.093 0.049-0.166zM17.057 27.188l0.24-0.027c0.006 0.049 0.021 0.085 0.046 0.108s0.057 0.035 0.098 0.035c0.051 0 0.095-0.023 0.131-0.071s0.059-0.145 0.069-0.293c-0.062 0.072-0.14 0.108-0.234 0.108-0.102 0-0.19-0.039-0.263-0.118s-0.111-0.181-0.111-0.306c0-0.131 0.039-0.237 0.117-0.317s0.177-0.12 0.298-0.12c0.131 0 0.239 0.051 0.323 0.152s0.126 0.268 0.126 0.501c0 0.236-0.044 0.407-0.131 0.512s-0.202 0.157-0.342 0.157c-0.101 0-0.183-0.027-0.245-0.081s-0.102-0.134-0.12-0.241z"></path>
<path fill="#63bce7" d="M10.418 21.96h-3.737v-9.036h3.737z"></path>
<path fill="#63bce7" d="M14.024 21.96h-2.682v-11.935h2.682z"></path>
<path fill="#63bce7" d="M16.893 21.96h-1.782v-14.92h1.782z"></path>
<path fill="#63bce7" d="M20.663 21.96h-2.692v-11.896h2.692z"></path>
<path fill="#63bce7" d="M25.319 21.96h-3.738v-8.946h3.738z"></path>
<path fill="#db2325" d="M15.657 4.060c0.121-0.349 0.221-0.705 0.351-1.051 0.102 0.353 0.227 0.699 0.333 1.050 0.366 0.009 0.731-0.007 1.097 0.010-0.286 0.23-0.598 0.424-0.882 0.657 0.127 0.338 0.211 0.69 0.347 1.025-0.316-0.174-0.587-0.422-0.888-0.62-0.046 0.004-0.081 0.040-0.119 0.063-0.259 0.185-0.51 0.383-0.777 0.556 0.087-0.353 0.231-0.689 0.32-1.041-0.297-0.211-0.589-0.429-0.886-0.639 0.368-0.019 0.736-0.002 1.103-0.010z"></path>
<path fill="#474aa7" d="M8.602 21.96v-6.058h0.763l2.953 4.757v-4.757h0.713v6.058h-0.763l-2.953-4.761v4.761z"></path>
<path fill="#474aa7" d="M15.711 21.96v-5.343h-1.852v-0.715h4.456v0.715h-1.86v5.343z"></path>
<path fill="#474aa7" d="M22.654 15.902h0.744v3.442c0 0.599-0.064 1.074-0.192 1.426s-0.359 0.639-0.692 0.859-0.771 0.331-1.313 0.331c-0.527 0-0.957-0.096-1.292-0.288s-0.574-0.471-0.717-0.835c-0.143-0.364-0.215-0.862-0.215-1.493v-3.442h0.744v3.437c0 0.517 0.045 0.899 0.136 1.144s0.247 0.434 0.468 0.567c0.221 0.133 0.491 0.199 0.811 0.199 0.547 0 0.937-0.131 1.17-0.394s0.349-0.768 0.349-1.516z"></path>
</svg>
